<?xml version="1.0" encoding="UTF-8"?>
<!-- Generator: visioncortex VTracer 0.6.12 -->
<svg version="1.1" xmlns="http://www.w3.org/2000/svg" width="856" height="856">
<path d="M0 0 C0.6796582031249727 0.15565429687499943 1.3593164062500023 0.31130859375000064 2.0595703125 0.4716796875 C25.211288609707765 5.935179860321993 44.14464017712106 18.665653350942492 63.3603515625 32.08598327636719 C91.75034743778406 51.8885525021204 121.40618011603374 69.82671789999111 152 86 C152.94020996093752 86.5009619140625 153.88041992187505 87.001923828125 154.84912109375 87.51806640625 C191.7336105604894 107.16466351524423 229.76544484810995 123.7439981703206 269.06640625 137.91796875 C270.44181351771147 138.41577047128138 271.8172204204226 138.91357320104612 273.192626953125 139.411376953125 C275.8346725235732 140.36708263274144 278.4805939312546 141.31071854491648 281.129638671875 142.246826171875 C282.32951416015624 142.67842041015626 283.5293896484375 143.1100146484375 284.765625 143.5546875 C285.825556640625 143.9309326171875 286.88548828125 144.307177734375 287.9775390625 144.69482421875 C295.27968149171727 147.84807570716643 299.8964302316782 152.30061868329622 303.8125 159.1875 C306.313169649172 167.21596571576268 305.6246431202576 174.4805485220267 302 182 C300.30994177772277 184.7393538538243 298.41320299693723 187.27369814731395 296.4375 189.8125 C295.9095483398437 190.5039208984375 295.3815966796875 191.195341796875 294.837646484375 191.90771484375 C290.8313721526681 197.08947564078588 286.5892167027381 201.96617616719467 282.10546875 206.7421875 C280.43647400548707 208.53194438743685 278.8873433256215 210.33068056349705 277.375 212.25 C274.2213125907474 215.90163805281884 270.6877288854082 218.90034748170004 267 222 C266.100234375 222.776015625 265.20046875 223.55203125 264.2734375 224.3515625 C244.39945544387945 241.28901950297347 210.45135303229904 266 183 266 C183.18755859375005 266.5091796875 183.18755859375005 266.5091796875 184.13671875 269.0859375 C193.32384419817504 294.3399621540565 199.20767576446156 320.0179977345459 199.09765625 347.00390625 C199.09624130249028 348.3229344177246 199.09482635498046 349.6419625854492 199.09336853027344 351.00096130371094 C199.08958243476138 354.4778946570905 199.07978635538961 357.9547850681436 199.06866455078125 361.43170166015625 C199.05836559549937 364.9915712427865 199.05385287703166 368.5514478824599 199.048828125 372.111328125 C199.03815988201427 379.07423619389095 199.0211314479493 386.0371160250234 199 393 C199.68720626831055 393.20079162597654 200.3744125366211 393.4015832519531 201.0824432373047 393.60845947265625 C201.98360366821294 393.8746307373047 202.88476409912107 394.14080200195315 203.813232421875 394.4150390625 C204.7066886901855 394.6777056884766 205.60014495849612 394.9403723144531 206.5206756591797 395.21099853515625 C213.29176322994363 397.3657783370399 219.04693404550835 401.10561280940385 223.0625 406.99609375 C225.80105702606113 412.84975939320566 226.28643409048584 418.2412771886689 226.22705078125 424.597412109375 C226.22734283447267 425.42748779296875 226.22763488769533 426.2575634765625 226.22793579101563 427.11279296875 C226.2265514359783 429.8344192407518 226.21103266922398 432.55576577814855 226.1953125 435.27734375 C226.19157918652934 437.1730585782955 226.18873371772884 439.068775344957 226.18673706054688 440.96449279785156 C226.17912567890176 445.9375243199989 226.15949872062038 450.91043776217157 226.1373291015625 455.8834228515625 C226.11681680243714 460.9645833645987 226.10772385177256 466.0457630815894 226.09765625 471.126953125 C226.07625039021775 481.0846871017313 226.04214470578222 491.0423337051286 226 501 C226.57542037963867 500.9895263671875 227.15084075927734 500.979052734375 227.7436981201172 500.96826171875 C230.37465978805233 500.9264450218217 233.00555126424524 500.90059301388726 235.63671875 500.875 C236.54192260742184 500.8582421875 237.4471264648438 500.841484375 238.3797607421875 500.82421875 C246.57728443316853 500.7644237287756 252.00310556109866 502.26655434709033 258.07421875 507.9375 C263.4066984784482 513.6485533400014 265.8434973173937 519.0895007700805 266 527 C265.38486404983075 534.8190614110408 262.0040145396266 540.2258810320267 256.3671875 545.5390625 C249.5129731485024 550.9905539144469 242.16223007375083 551.1107371807359 233.68359375 551.04296875 C233.31345153808593 551.0414178466797 233.31345153808593 551.0414178466797 231.4403076171875 551.0335693359375 C229.6268550747418 551.0255225517636 227.81342239882645 551.0131938573884 226 551 C226.00888244628902 551.8820359802246 226.01776489257816 552.7640719604492 226.02691650390625 553.6728363037109 C226.10730064246832 562.0140326517841 226.1680850172454 570.3550975717109 226.20724868774414 578.6965932846069 C226.2280605752769 582.9843399855827 226.25625992086157 587.271764721322 226.3017578125 591.559326171875 C226.34544570267542 595.7025827602162 226.36918515490765 599.8455310423844 226.37950897216797 603.9890003204346 C226.3868594344275 605.5641572125696 226.40121267472261 607.1392985848678 226.42292022705078 608.7143230438232 C226.63729585896544 624.9237714656072 226.63729585896544 624.9237714656072 222 632 C221.62681137084962 632.5727365112305 221.25362274169925 633.1454730224609 220.86912536621094 633.7355651855469 C217.93984966261894 637.6805547771347 214.3532938314786 639.7774061366188 209.98828125 641.78515625 C209.2990608215332 642.1157252502442 208.6098403930664 642.4462942504883 207.8997344970703 642.7868804931641 C205.60829776613662 643.8771298112134 203.30612952046818 644.9412065322853 201 646 C200.1851312255859 646.3764666748046 199.37026245117193 646.7529333496094 198.53070068359375 647.1408081054688 C193.32443587519003 649.539907314218 188.10118985053623 651.8994738261334 182.867919921875 654.239013671875 C180.1439490371131 655.4569727822945 177.42241597545012 656.6802590851928 174.701171875 657.904296875 C172.9610738979128 658.6851998419681 171.22084457522624 659.4658102113739 169.48046875 660.24609375 C168.67119430541993 660.6095640563965 167.86191986083986 660.973034362793 167.0281219482422 661.3475189208984 C166.27916152954106 661.6819953918457 165.5302011108398 662.016471862793 164.758544921875 662.361083984375 C164.10287033081056 662.6545018005371 163.44719573974612 662.9479196166992 162.7716522216797 663.2502288818359 C161.21149517479682 663.9104942991896 159.6071827491179 664.4642724169607 158 665 C159.52841447445905 670.0029467580118 162.52220576133777 673.2431248012431 165.9375 677.0625 C166.51725585937504 677.7208081054688 167.09701171874997 678.3791162109375 167.6943359375 679.057373046875 C172.21290114207125 684.1694785961146 176.80562364602974 689.2129121809087 181.44140625 694.21875 C183.8945297373224 696.88535140912 186.2923457842445 699.5938976080998 188.6875 702.3125 C191.89764099835963 705.8926040566813 195.2395449082636 709.0704963061665 198.9140625 712.1640625 C201.3344981992982 714.2944085274722 203.56119881156724 716.5668836396194 205.8125 718.875 C210.02249751498732 723.1299212689581 214.4323202194854 726.9380828845337 219.109375 730.66796875 C221.6160091271845 732.6902127688231 224.05642407885375 734.7702399606084 226.4853515625 736.884521484375 C249.77867711611532 757.0516375557946 276.82153270245965 773.1053250319196 303.8359375 787.71484375 C304.96040283203126 788.3278735351563 306.0848681640625 788.9409033203125 307.243408203125 789.572509765625 C309.39297228648013 790.7398677374831 311.5499954649533 791.8936358295608 313.715576171875 793.031005859375 C321.70948731120416 797.3758792122387 327.81358536167966 802.1252923588589 331 810.875 C332.7369287724407 817.9638405525235 332.17748797163154 824.1931429862236 328.9375 830.75 C325.1749210493696 836.9119046582788 319.7444776708679 840.6393776689744 313 843 C310.53989430144395 843.2517056725919 310.53989430144395 843.2517056725919 307.90209370851517 843.2541503310204 C306.89002745300536 843.2599260434508 305.87796119749544 843.2657017558813 304.8352262675762 843.2716524899006 C303.72817800194025 843.2678277000784 302.6211297363043 843.2640029102564 301.48053455352783 843.2600622177124 C300.29589971750977 843.2638678887487 299.1112648814917 843.2676735597848 297.8907320201397 843.2715945541859 C294.59149203764696 843.2801472378197 291.2924717132478 843.279715219866 287.9932376528159 843.2755391923711 C284.4080348405655 843.2731776352708 280.8228586173625 843.2823359742 277.2376658320427 843.2900233864784 C270.95036001210053 843.301883175126 264.6630832311996 843.3062356552227 258.3757667541504 843.3057022094727 C249.02619048343445 843.3049098325141 239.67665093906032 843.3154499773694 230.3270844714716 843.3281177794561 C211.68427912661866 843.3528744622593 193.04148266020366 843.3616423491387 174.39866314129904 843.366654267069 C173.4328581293812 843.3669154423521 172.46705311746337 843.3671766176354 171.47198128700256 843.3674457073212 C170.50426501731852 843.3677059814939 169.53654874763447 843.3679662556667 168.53950774250552 843.3682344169356 C157.82220184122684 843.3713150151632 147.1048984137417 843.3778191610604 136.38759422302246 843.3844470977783 C104.02555238542823 843.4040967095319 71.66351322287107 843.4205001158085 39.30146503448486 843.4233236312866 C38.26604511735496 843.4234176923753 37.23062520022506 843.4235117534641 36.16382892196998 843.4236086648889 C31.967606602766296 843.4239871518201 27.771384282390045 843.42435114842 23.575161961605772 843.424711643951 C20.416725812637253 843.4249833644126 17.258289664128597 843.4252600431194 14.099853515625 843.425537109375 C13.578019584040135 843.4255811207229 13.578019584040135 843.4255811207229 10.937223627232015 843.425803844817 C-21.85787677103326 843.4287095024237 -54.65291823862975 843.4508062328175 -87.447998046875 843.487060546875 C-124.27847020594487 843.5277747042114 -161.1089022100236 843.5514821073405 -197.93939810991287 843.551783144474 C-201.8657705432633 843.5518799690007 -205.79214296761063 843.5520466931431 -209.71851539611816 843.5522632598877 C-210.68531400065405 843.5523073741933 -211.6521126051899 843.552351488499 -212.64820813713595 843.5523969396017 C-228.21604017001042 843.553517451727 -243.7838132372474 843.5709358523499 -259.35162627417594 843.594082579948 C-274.99490928905976 843.6169102265194 -290.6381125187115 843.6211599683721 -306.28140606731176 843.6065332815051 C-315.5775928869016 843.59837378826 -324.87352861896613 843.6041010922875 -334.1696850552689 843.6297141273972 C-340.37884702181026 843.6454428940688 -346.58783037300327 843.6430120953454 -352.79698798363097 843.6258074010257 C-356.33522741145896 843.6165172064195 -359.87298259356214 843.6150971107393 -363.41118463128805 843.6357734724879 C-367.224799291969 843.6578696760708 -371.03769219941506 843.6412022900681 -374.8513288497925 843.6208257675171 C-375.9466712847352 843.6333891406655 -377.0420137196779 843.645952513814 -378.1705483496189 843.6588965952396 C-386.9623506757971 843.5580808793623 -394.1535797615961 841.1542743116157 -400.4375 834.8125 C-404.7036117133162 829.2132283762725 -406.3666171262165 822.8588812291733 -405.9375 815.875 C-404.8321521176706 808.4517163270932 -402.08440840814166 803.4832096996806 -396.27490234375 798.6552734375 C-392.0644888700919 795.5916757393456 -387.4850684982348 793.1752806423744 -382.9066467285156 790.7102355957031 C-380.47119492307615 789.3976254818278 -378.04744379168204 788.0640531845866 -375.62281799316406 786.7315826416016 C-373.8284004196136 785.7456440391254 -372.0326421243317 784.7621793647118 -370.23681640625 783.77880859375 C-343.4833076684467 769.0762844827502 -317.73311813938665 751.8276963601917 -294.85302734375 731.58203125 C-293.49218279084715 730.4202034894189 -292.1025200305867 729.2919140008022 -290.69775390625 728.18359375 C-282.7243228367708 721.8771595125528 -275.5792329335621 714.8846778318024 -268.419921875 707.6806640625 C-266.37849622650526 705.628514592547 -264.326588611179 703.5872857940213 -262.2734375 701.546875 C-255.05322328109338 694.3340879175175 -248.30311590854654 687.0357098995456 -242 679 C-240.98472167894425 677.7846035288627 -239.96348126104152 676.5741358797109 -238.93359375 675.37109375 C-238.1098828125 674.4030078125 -237.286171875 673.434921875 -236.4375 672.4375 C-235.5905859375 671.4462109375 -234.743671875 670.454921875 -233.87109375 669.43359375 C-232 667 -232 667 -232 665 C-233.15298583984375 664.49662109375 -234.3059716796875 663.9932421875 -235.493896484375 663.474609375 C-239.85807371517632 661.5684968235472 -244.22084890506832 659.6591925251863 -248.583251953125 657.7490234375 C-250.45527924024873 656.9298213503454 -252.32766314027845 656.1114336031656 -254.200439453125 655.2939453125 C-263.6892996569672 651.1513160789642 -273.1688953847872 646.9858528058282 -282.57421875 642.65625 C-283.26519149780273 642.3449011230468 -283.95616424560546 642.0335522460938 -284.66807556152344 641.7127685546875 C-292.22050028200033 638.1924414803254 -296.49163825659787 633.5217825785626 -299.35528564453125 625.721923828125 C-300.835325459346 619.4733338838404 -300.3587631545558 612.8557655256471 -300.29296875 606.46875 C-300.28736562330283 604.8659301653904 -300.2830989140554 603.263105153524 -300.2801055908203 601.6602783203125 C-300.26871314659627 597.46477796236 -300.2392950495538 593.2695947732867 -300.20599365234375 589.07421875 C-300.1751712118722 584.7838977951208 -300.16157436835834 580.4935250291868 -300.146484375 576.203125 C-300.1144192438645 567.8019386363935 -300.0632917337193 559.4010089002138 -300 551 C-301.0969921875 551.0072509765625 -302.193984375 551.014501953125 -303.32421875 551.02197265625 C-304.7786451655854 551.0278372788935 -306.23307230392817 551.033524535535 -307.6875 551.0390625 C-308.40873046875 551.0442993164063 -309.1299609375 551.0495361328125 -309.873046875 551.054931640625 C-319.5240421027556 551.0824744352248 -325.86888122301303 549.7262954403021 -333 543 C-338.04367701957085 537.8795157161717 -339.6107675153552 532.0960076046781 -340 525 C-339.34912268344453 516.5120284636946 -335.3742314093083 510.96744059796765 -329.171875 505.39453125 C-322.60189949077346 501.17603978094627 -316.5919283444447 500.58509200811574 -309 500.8125 C-308.1298828125 500.82603515625 -307.259765625 500.8395703125 -306.36328125 500.853515625 C-304.2419137313277 500.8884832214616 -302.1208702628587 500.94227470050686 -300 501 C-300.0033309173584 500.4764392089844 -300.0033309173584 500.4764392089844 -300.0201873779297 497.826904296875 C-300.08110429549566 487.9401805526819 -300.12602339605735 478.05349508457545 -300.1554365158081 468.1666259765625 C-300.1710666395729 463.08414870328926 -300.1922564154092 458.0018234130564 -300.226318359375 452.91943359375 C-300.2590064607245 448.01110345113966 -300.2768729644068 443.10291915199616 -300.284631729126 438.1944885253906 C-300.29015828882734 436.32546697700656 -300.30095026130476 434.4564530604423 -300.3171901702881 432.5874938964844 C-300.3390901961528 429.96180206340335 -300.34196170112307 427.3367065326071 -300.340576171875 424.7109375 C-300.3513619995117 423.94488693237304 -300.3621478271484 423.1788363647461 -300.3732604980469 422.3895721435547 C-300.3299937460789 414.77066164041867 -297.9832996270226 407.8777380216164 -293 402 C-288.39965833720487 398.6784536730721 -283.493965103852 396.1931723950169 -278.317138671875 393.90673828125 C-277.508226776123 393.5489529418945 -276.6993148803711 393.19116760253905 -275.8658905029297 392.8225402832031 C-275.5580185699463 392.6868211364746 -275.5580185699463 392.6868211364746 -274 392 C-273.99635437011716 391.32080001831054 -273.9927087402344 390.64160003662107 -273.98895263671875 389.9418182373047 C-273.95038653365486 383.40128652342946 -273.8928030186131 376.86119540536373 -273.8160972595215 370.32099437713623 C-273.7773130594701 366.962043657819 -273.7468905998499 363.60354742065175 -273.72900390625 360.244384765625 C-273.38551694006287 299.2983473984931 -254.83893094172294 242.9050261724683 -214 197 C-213.5583349609375 196.49662109375 -213.116669921875 195.9932421875 -212.66162109375 195.474609375 C-200.57199331788638 181.72094739997584 -186.65327786710304 168.06681040740727 -170.805419921875 158.703369140625 C-169 157 -169 157 -168.48583984375 154.298828125 C-168.47762207031246 153.22052734375 -168.46940429687504 152.1422265625 -168.4609375 151.03125 C-168.45010131835937 150.4303857421875 -168.45010131835937 150.4303857421875 -168.395263671875 147.3896484375 C-168.3919201660156 146.7478564453125 -168.3919201660156 146.7478564453125 -168.375 143.5 C-168.321111039759 140.8488585239739 -168.26251442637601 138.19780857202588 -168.19921875 135.546875 C-168.1700537109375 134.25201171875 -168.14088867187502 132.9571484375 -168.11083984375 131.623046875 C-166.95120348453486 93.71775266629258 -152.21756490154524 60.50131319360986 -125 34 C-124.57332031250002 33.5166015625 -124.14664062499997 33.033203125 -123.70703125 32.53515625 C-106.00603933803387 13.196026269060116 -78.25706840811364 2.4049341389307344 -53 -2 C-51.989374999999995 -2.1843359375 -50.97874999999999 -2.3686718750000004 -49.9375 -2.55859375 C-33.44550139323178 -4.407399149369853 -16.156017948257897 -3.8814891459704874 0 0 Z M-94 73 C-94.36867187500002 73.36416015625 -94.36867187500002 73.36416015625 -96.234375 75.20703125 C-110.37718280012109 89.9802355218319 -118.42439788965874 111.69591148948473 -118 132 C-117.37246826171872 131.808896484375 -116.7449365234375 131.61779296875 -116.098388671875 131.4208984375 C-98.23290470495334 126.01194783124737 -80.50714735944683 121.52521220703403 -62 119 C-61.92072265625001 118.53529296875 -61.92072265625001 118.53529296875 -61.51953125 116.18359375 C-59.8230899753334 107.19526677538528 -58.42881127528807 101.48651100395018 -51.0625 95.6875 C-44.760974965365165 92.21523110336449 -39.13462915358684 91.1296612026498 -32 92 C-24.146098892806037 94.29900586207418 -18.810592595589753 98.661207474403 -14.839111328125 105.89892578125 C-13.80546425445732 108.48710346992739 -13.349886065043279 110.99582976410446 -12.88671875 113.7421875 C-12.717448730468732 114.7281591796875 -12.54817871093752 115.714130859375 -12.373779296875 116.72998046875 C-12.250432128906255 117.4790869140625 -12.127084960937509 118.228193359375 -12 119 C-11.393415527343734 119.0897509765625 -10.786831054687468 119.179501953125 -10.161865234375 119.27197265625 C34.23744939786013 125.95914318043359 76.1147095040285 141.03882424171826 111 170 C111.59764160156249 170.4961279296875 112.19528320312497 170.992255859375 112.81103515625 171.50341796875 C125.37219374338304 182.01364311672714 136.9210914647324 193.0414033117989 147 206 C147.44182617187494 206.564931640625 147.88365234375 207.12986328125 148.3388671875 207.7119140625 C156.7167572463768 218.43351449275366 156.7167572463768 218.43351449275366 158 221 C175.34722462178934 219.2401366325721 191.84839175469278 212.32678947937828 207 204 C207.52142578124995 203.72349609375 207.52142578124995 203.72349609375 210.16015625 202.32421875 C215.94228528167787 199.1322397456877 221.22750756406163 195.47691444424692 226.4375 191.4375 C227.0170947265625 190.99043701171874 227.596689453125 190.5433740234375 228.19384765625 190.082763671875 C231.9927022690905 187.05529220094314 234.9986036264943 183.8204690287055 238 180 C230.27339434155476 176.3764129230541 222.42592424521808 173.13052889683803 214.4967041015625 169.98294067382813 C179.07001678855647 155.8697688695012 144.46545342796026 139.49852009037124 111.44970703125 120.40625 C108.66629326208852 118.8084362357614 105.85910385563352 117.25830628748157 103.046142578125 115.71337890625 C84.91113441625384 105.70375007449081 67.51550236509502 94.45378781594037 50.3125 82.9375 C49.61154205322259 82.46833160400391 48.9105841064453 81.99916320800781 48.188385009765625 81.51577758789063 C42.86103858948769 77.94828597536862 37.537376172817744 74.37530100033021 32.21453857421875 70.80108642578125 C-8.72725028649171 43.326933622622846 -56.02694071372008 34.06056046242252 -94 73 Z M-173 225 C-175.4882608236161 227.56295533239256 -177.77606132577966 230.20595233539058 -180 233 C-180.7541015625 233.928125 -181.50820312500002 234.85625 -182.28515625 235.8125 C-210.47024657385052 271.0631980314563 -224.3473217941083 313.77701446485 -224.0625 358.6875 C-224.0574702755293 360.08268066850115 -224.05290999674838 361.4778631114009 -224.048828125 362.873046875 C-224.03714751083646 366.248744368262 -224.02076832588554 369.6243482618337 -224 373 C-218.89301280436172 372.2612780938209 -214.2877359894058 370.2904436291398 -209.515625 368.4140625 C-208.56907043457034 368.0457028198242 -207.6225158691406 367.6773431396484 -206.64727783203125 367.2978210449219 C-203.51337752655445 366.0772924006277 -200.3817263229671 364.85109482936286 -197.25 363.625 C-195.03988209620752 362.7632394658933 -192.82959279845386 361.9019183812279 -190.619140625 361.041015625 C-186.02342075135266 359.2507300639383 -181.42844715596902 357.4585481523647 -176.833984375 355.6650390625 C-167.39940799917008 351.98374877476266 -157.95594605678076 348.32543222184484 -148.51242065429688 344.66717529296875 C-144.46956010525076 343.1007516465786 -140.42721689295405 341.532995381253 -136.38487243652344 339.9652404785156 C-128.01527709163315 336.71924090240805 -119.64512754796613 333.47467684750484 -111.27406311035156 330.2324676513672 C-109.10619458105964 329.3927115055708 -106.93841847688185 328.5527167196195 -104.77073669433594 327.7124786376953 C-99.50718506854338 325.67227913534316 -94.24258738746079 323.6348934341587 -88.975341796875 321.604248046875 C-80.34621707111586 318.2730446590451 -71.73229693019158 314.9248957061866 -63.1953125 311.36328125 C-61.90746156814646 310.83230952616486 -60.61946361685057 310.3016942120231 -59.331298828125 309.771484375 C-57.10870140598706 308.84993839604374 -54.89371535516591 307.9096112449582 -52.690185546875 306.943359375 C-36.015171886107964 300.06315646356086 -23.201569080564866 305.93940980866637 -7.5 312.375 C-5.323882550458961 313.2459069080213 -3.146779126137176 314.11435379092444 -0.96875 314.98046875 C3.509787342987863 316.76454747277006 7.983286240609914 318.56045261781253 12.453125 320.3662109375 C21.3382497071035 323.9499867890306 30.26448358023754 327.4271506590799 39.191558837890625 330.9047546386719 C42.96268768577147 332.37543219223323 46.73112499741097 333.8529430167946 50.49971008300781 335.3301239013672 C65.81508847733244 341.33180788960243 81.15479588651215 347.2705575096714 96.49658203125 353.204345703125 C105.78321698587672 356.7983636065709 115.06299316367608 360.40710984701195 124.31640625 364.0859375 C125.10237686157234 364.39796615600585 125.88834747314445 364.7099948120117 126.69813537597656 365.03147888183594 C130.3006921511917 366.46237452629674 133.9009473676308 367.8985885518148 137.497314453125 369.344970703125 C138.72281005859372 369.83312255859374 139.94830566406245 370.3212744140625 141.2109375 370.82421875 C142.2658740234375 371.24791748046874 143.320810546875 371.6716162109375 144.40771484375 372.108154296875 C147 373 147 373 150 373 C150.65042690099085 340.79552959452803 148.38303396743595 309.8120853511891 135 280 C134.71431152343757 279.33871093749997 134.42862304687492 278.677421875 134.13427734375 277.99609375 C114.79137141650972 233.27019565783988 77.18700113243517 197.77487596956982 32.04931640625 179.79248046875 C18.33553819885975 174.48929675881567 2.8772096311748214 168.72548294395966 -12 169 C-12.014582519531245 169.83136474609375 -12.029165039062491 170.6627294921875 -12.044189453125 171.519287109375 C-12.105753717482855 174.64514193113433 -12.179996570158153 177.7703836935287 -12.262451171875 180.895751953125 C-12.311509345089235 182.89708611210528 -12.346331373650571 184.8987530610581 -12.380859375 186.900390625 C-12.653844536481756 196.7526732712061 -13.608073932899913 205.1470622604199 -20 213 C-26.503537945243806 218.08972534845165 -32.85702174124708 219.91090943233507 -41 219 C-46.52317678439471 217.55486772307952 -52.22915083383248 215.31150665495312 -55.765625 210.6953125 C-56.25546874999998 209.847109375 -56.74531250000001 208.99890625 -57.25 208.125 C-57.75015625000003 207.281953125 -58.25031250000001 206.43890625 -58.765625 205.5703125 C-61.01000168378971 200.8968952280582 -61.15816993491637 196.29934639628203 -61.31640625 191.16796875 C-61.33735351562501 190.521826171875 -61.33735351562501 190.521826171875 -61.443359375 187.251953125 C-61.48316351682587 185.8971380754457 -61.52287591258852 184.542320327535 -61.5625 183.1875 C-61.605737233358525 181.81313895313187 -61.64935311911853 180.4387897631423 -61.693359375 179.064453125 C-61.799297895570476 175.70973330693462 -61.9013718900477 172.35494139931004 -62 169 C-103.23322113471897 168.28154235901627 -144.9796061127189 197.2844862910232 -173 225 Z M-41.947509765625 355.442626953125 C-42.35985115051267 355.60254371643066 -42.35985115051267 355.60254371643066 -44.44654846191406 356.4118194580078 C-45.352351531982436 356.76705184936526 -46.25815460205081 357.12228424072265 -47.19140625 357.48828125 C-48.14220565795898 357.85805587768556 -49.093005065917964 358.2278305053711 -50.07261657714844 358.6088104248047 C-53.237119496199625 359.8402951541313 -56.39977769488712 361.0764502334169 -59.5625 362.3125 C-61.78632014257698 363.17874026497725 -64.0102806021971 364.04462038542795 -66.234375 364.91015625 C-70.86268969905456 366.711651167229 -75.49039158682535 368.5147075347629 -80.11767578125 370.31884765625 C-89.56879548283752 374.0024416343637 -99.02718068217331 377.6672561274377 -108.48565673828125 381.3319091796875 C-112.5479255463568 382.9060825542385 -116.60974248844929 384.48142010223086 -120.67156982421875 386.0567321777344 C-128.86833272405318 389.23567973963355 -137.0656606058817 392.41316133798676 -145.26402282714844 395.5879821777344 C-168.71074873955763 404.6678150592888 -192.1455017050613 413.77704600593154 -215.555419921875 422.951416015625 C-216.00195167541506 423.1263886260986 -216.00195167541506 423.1263886260986 -218.2616729736328 424.01185607910156 C-219.9980507623842 424.6924346204591 -221.7342913826099 425.3733632458659 -223.4703826904297 426.05467224121094 C-227.73358077312582 427.7264575491861 -232.000298104801 429.3882439554365 -236.27392578125 431.033203125 C-237.11258682250977 431.3566973876953 -237.95124786376954 431.6801916503906 -238.81532287597656 432.01348876953125 C-240.40431780077873 432.62576113113255 -241.9941539881053 433.235856054632 -243.58494567871094 433.84344482421875 C-248.88878061199088 435.8887806119909 -248.88878061199088 435.8887806119909 -250 437 C-250.09692063441162 439.13893267327774 -250.12186802587289 441.2811296666676 -250.12025451660156 443.42225646972656 C-250.12068172901868 443.7616185280681 -250.12068172901868 443.7616185280681 -250.12284368276596 445.4789962172508 C-250.12450040949096 447.76995926148487 -250.11897400221088 450.06085026049425 -250.113525390625 452.351806640625 C-250.11324353422546 453.98740130886273 -250.1134012219308 455.6229961038846 -250.1139678955078 457.2585906982422 C-250.11425593172675 461.71294586236513 -250.10835823980744 466.16727434002604 -250.10139393806458 470.6216232776642 C-250.09516139317617 475.2714647365023 -250.09455668048662 479.92130674216736 -250.09336853027344 484.57115173339844 C-250.09025491997266 493.38261702492053 -250.08204113384292 502.19406997492234 -250.07201904058456 511.00552982091904 C-250.0608588232113 521.0343810751003 -250.05534768473947 531.0632329050263 -250.05032360553741 541.0920888185501 C-250.03985854335068 561.7280661124817 -250.02225853021986 582.3640322802449 -250 603 C-249.7431001663208 603.1141777038574 -249.7431001663208 603.1141777038574 -248.44303131103516 603.6919860839844 C-217.08702087402347 617.6279907226563 -185.73101043701172 631.5639953613281 -154.375 645.5 C-153.4469404602051 645.9124697875977 -152.51888092041014 646.3249395751952 -151.5626983642578 646.7499084472656 C-149.68703379439557 647.5835394061853 -147.81137258207673 648.4171779195976 -145.9357147216797 649.2508239746094 C-141.25841009395174 651.3296654856788 -136.58104786320484 653.4083771913971 -131.903564453125 655.48681640625 C-121.3900390298785 660.1586922546778 -110.87750383243491 664.8327747330158 -100.36801147460938 669.5137176513672 C-95.59472279047014 671.6390839796527 -90.8196192412384 673.7601540411864 -86.0400390625 675.871337890625 C-78.23161826765943 679.32263600377 -70.42940508396885 682.7774519106936 -62.69490051269531 686.39208984375 C-59.73765266817077 687.771843985295 -56.77121492440028 689.1310615515533 -53.803375244140625 690.4878540039063 C-52.45609047003853 691.110946931015 -51.1135343715124 691.7443900281047 -49.776458740234375 692.3890991210938 C-47.96230466727383 693.2634176416709 -46.1298773714924 694.099513309055 -44.296875 694.93359375 C-43.289794921875 695.4085327148438 -42.28271484375 695.8834716796875 -41.2451171875 696.372802734375 C-36.541546605127905 697.2818813400111 -33.33319644725157 695.8182932801336 -29 694 C-28.268154907226574 693.6979615783691 -27.536309814453148 693.3959231567383 -26.78228759765625 693.0847320556641 C-24.46040288337906 692.0978911681345 -22.15923535532545 691.0722496200358 -19.859375 690.03515625 C-18.996327514648442 689.650164642334 -18.133280029296884 689.2651730346679 -17.24407958984375 688.8685150146484 C-14.410975458454118 687.6037060238045 -11.580523768534135 686.3330717092114 -8.75 685.0625 C-6.740434214354536 684.1642663191788 -4.730664779714061 683.2664881266835 -2.720703125 682.369140625 C1.4519621575491328 680.5058306028455 5.623747158928154 678.6405700374587 9.794921875 676.77392578125 C18.430813638472785 672.9110402242766 27.077294882847013 669.0720351613768 35.7237548828125 665.2328796386719 C40.3996748352036 663.1563891783474 45.074793972809516 661.0780972263904 49.75 659 C51.62499622535506 658.1666581737675 53.49999622390362 657.3333248370647 55.375 656.5 C56.30312500000002 656.0875 57.231250000000045 655.675 58.1875 655.25 C66.62499986094122 651.5000000618038 66.62499986094122 651.5000000618038 69.43719482421875 650.2501373291016 C71.31321375458856 649.4163500070538 73.18923100574239 648.5825589067649 75.06524658203125 647.7487640380859 C79.73714322280034 645.6723458319699 84.40906851418981 643.5959921394974 89.0810546875 641.519775390625 C97.70379536626183 637.6877759235688 106.32628218712489 633.8552089948748 114.94775390625 630.0203552246094 C118.92672825309296 628.2505439602434 122.90586383267464 626.4810953615997 126.885009765625 624.711669921875 C128.7429994688107 623.8853513653411 130.60091422493463 623.0588642606127 132.458740234375 622.232177734375 C146.95526865232614 615.7816594332394 161.47656297038475 609.3903122930307 176 603 C176 548.22 176 493.44 176 437 C165.87093046623852 432.4981913183282 165.87093046623852 432.4981913183282 162.238525390625 431.0556640625 C161.41208023071295 430.7265704345703 160.58563507080078 430.3974768066406 159.73414611816406 430.05841064453125 C158.86410446166997 429.71429138183595 157.99406280517576 429.37017211914065 157.09765625 429.015625 C156.15981796264646 428.6433074951172 155.2219796752929 428.2709899902344 154.25572204589844 427.88739013671875 C151.1922631517757 426.67251634612927 148.12749749883483 425.4609863790638 145.0625 424.25 C144.0002319335938 423.8296044921875 142.93796386718748 423.409208984375 141.843505859375 422.97607421875 C126.42195347166057 416.87567084577233 110.95768376158821 410.8999033059961 95.44558715820313 405.0340576171875 C81.241567918844 399.65971882086933 67.11052930765572 394.11488967804513 53 388.5 C35.786392614422084 381.6505430785966 18.523410953189398 374.9500763877725 1.197265625 368.390625 C-0.4739766986668883 367.7578610039887 -2.1452011084106744 367.1250496917835 -3.81640625 366.4921875 C-4.612936096191447 366.1906072998047 -5.409465942382781 365.8890270996094 -6.230133056640625 365.57830810546875 C-14.111993718431222 362.58850570786075 -21.96110894101247 359.516968743065 -29.787353515625 356.38427734375 C-30.60002685546874 356.0615283203125 -31.412700195312482 355.738779296875 -32.25 355.40625 C-32.93578124999999 355.13103515625 -33.62156249999998 354.8558203125 -34.328125 354.572265625 C-37.30827105563594 353.55219226717134 -39.10800967186333 354.3347881452398 -41.947509765625 355.442626953125 Z M-184 686 C-184.9467201507216 687.1206075253439 -185.8511761871169 688.276944031987 -186.73828125 689.4453125 C-187.30506591796876 690.1857177734375 -187.87185058593752 690.926123046875 -188.455810546875 691.68896484375 C-189.06851806640623 692.4928564453126 -189.6812255859375 693.296748046875 -190.3125 694.125 C-199.48148694710534 706.0290907123011 -209.19538561998314 717.3260837115519 -219.4384765625 728.32080078125 C-221.21213678750254 730.228123330901 -222.9767888799772 732.1436229150789 -224.7421875 734.05859375 C-226.05689638477372 735.4769290042533 -227.37199776401312 736.8949005458967 -228.6875 738.3125 C-229.29311767578125 738.9704052734374 -229.8987353515625 739.628310546875 -230.522705078125 740.30615234375 C-234.16810439843078 744.2158542303064 -237.96282430099987 747.8041031129117 -242.020263671875 751.282958984375 C-245.209666374888 754.0491532389428 -248.24839026782075 756.971773338964 -251.3125 759.875 C-258.7455702070275 766.8505517620656 -266.48061206987256 773.2766275649956 -274.5390625 779.51953125 C-275.3456127929687 780.1447265625 -276.1521630859375 780.769921875 -276.983154296875 781.4140625 C-278.5886403521626 782.6559066824248 -280.1967770558375 783.8943334839254 -281.807861328125 785.12890625 C-282.55060302734375 785.70125 -283.2933447265625 786.27359375 -284.05859375 786.86328125 C-284.72173583984375 787.3715747070312 -285.3848779296875 787.8798681640625 -286.068115234375 788.403564453125 C-288.16361591753304 790.1352059250282 -290.07780004937945 792.0778000493794 -292 794 C-123.69999999999999 794 44.60000000000002 794 218 794 C214.32267442606008 790.3226744260602 210.9819732978599 787.3377981060077 206.875 784.25 C192.93542035179757 773.6624542604235 179.16282221160054 762.5245910178702 166.953125 749.953125 C165.14348385572316 748.143483855723 163.27855847421552 746.510628478549 161.3125 744.875 C155.29849824265648 739.7115841485755 150.07523515706578 733.712863005447 144.7265625 727.87939453125 C143.1480656471556 726.1611721368502 141.56070640726603 724.4518369350461 139.96875 722.74609375 C129.15268399057481 711.1241981035719 119.57965202161495 698.6385509009314 110 686 C98.25744375841157 690.7904721001657 86.56559206304564 695.6564700635839 75.0625 701 C64.08886184122935 706.0961340918946 53.02323961939976 710.9662736481192 41.9375 715.8125 C29.297070667889102 721.3388765013759 16.684131155586158 726.9161781928605 4.125 732.625 C-34.72794916426625 750.2790618343945 -34.72794916426625 750.2790618343945 -44.898681640625 747.091552734375 C-52.41495776068575 744.1073684500303 -59.81589208216417 740.9260244281746 -67.16732788085938 737.5559692382813 C-70.54256618443765 736.0092545051332 -73.92405741448658 734.4762910021669 -77.3046875 732.94140625 C-78.01322372436528 732.6193621826172 -78.72175994873044 732.2973181152344 -79.45176696777344 731.9655151367188 C-87.51012753415813 728.3065470695473 -95.59764255743198 724.7136594437779 -103.6875 721.125 C-105.19710368615449 720.4550799763325 -106.70670654715951 719.7851580932631 -108.21630859375 719.115234375 C-110.50151683588115 718.1012491570316 -112.7867810616292 717.087390731646 -115.07217407226563 716.0738220214844 C-120.51846408024556 713.6582693876867 -125.9628535605874 711.2384718566057 -131.40625 708.81640625 C-145.1603572020249 702.6967389858446 -158.91603549842887 696.5805275664303 -172.6875 690.5 C-173.73317138671877 690.0368237304688 -174.77884277343753 689.5736474609375 -175.856201171875 689.096435546875 C-176.79439697265627 688.6830493164063 -177.7325927734375 688.2696630859375 -178.69921875 687.84375 C-179.51221435546876 687.48474609375 -180.3252099609375 687.1257421875 -181.162841796875 686.755859375 C-183 686 -183 686 -184 686 Z " fill="#000000" transform="translate(465,8)"/>
<path d="M0 0 C6.394053134178364 4.502051672015057 9.586102930494349 9.948418595049134 11.19140625 17.54296875 C11.620746401512974 22.886103752548877 11.602359943785814 28.212882328718592 11.57958984375 33.568359375 C11.583660654535834 35.18068292640754 11.589005385393193 36.79300368473963 11.59552001953125 38.40531921386719 C11.609138881498666 42.762759845979076 11.603917525355598 47.11998620298823 11.594382762908936 51.47743034362793 C11.586757920129855 56.04961577091058 11.593839596364319 60.621783535445275 11.598541259765625 65.1939697265625 C11.603990605760032 72.87039463933235 11.596828781571162 80.54673280522184 11.58251953125 88.22314453125 C11.566194599255653 97.08290067603707 11.571483688289504 105.94244966581243 11.587998747825623 114.80220079421997 C11.601637043921585 122.42540773146459 11.603521833026207 130.04855250911078 11.595682740211487 137.6717677116394 C11.591019093232376 142.21759909524997 11.590345236789176 146.76333328531507 11.600292205810547 151.3091583251953 C11.608993778789284 155.58400423118985 11.602882029847933 159.8585844915075 11.585609436035156 164.13340187072754 C11.581661571029372 165.69703036183205 11.58274932633384 167.26068142403358 11.589397430419922 168.8243007659912 C11.629165660580497 179.1324537245248 11.256770721987152 188.48852752148025 4.78515625 196.97265625 C-0.04766948080805378 201.73441101417848 -6.692390992046796 204.65216263507762 -13.43359375 204.85546875 C-20.13447938758253 204.78699254640424 -24.951763907997986 202.2960234257739 -30.55859375 198.85546875 C-37.07536395353867 192.15767715191862 -38.92625820615177 184.90866786890592 -38.94903564453125 175.7829132080078 C-38.9520067667961 175.1159941548109 -38.954977889060956 174.44907510161397 -38.95803904533386 173.7619463801384 C-38.96668816798058 171.53439997262797 -38.968231078603026 169.30690754894977 -38.9697265625 167.079345703125 C-38.97435746892529 165.47908921494218 -38.979382496980634 163.87883382593748 -38.984771728515625 162.27857971191406 C-38.99787262461933 157.93536807071996 -39.00433632939195 153.59217187376782 -39.008782386779785 149.248943567276 C-39.01171721953449 146.532666492428 -39.01582283191124 143.81639360043573 -39.020286560058594 141.10011863708496 C-39.03395623700203 132.59344735391664 -39.043625134683566 124.08678567594097 -39.04748845100403 115.58010417222977 C-39.05196616534562 105.77561570232967 -39.06950297320452 95.9712668529877 -39.0984890460968 86.16682082414627 C-39.12014087178062 78.57851322838576 -39.13019462089892 70.99024481214144 -39.131529569625854 63.40190666913986 C-39.13257521213768 58.8744079014665 -39.13843148610687 54.34704047507995 -39.156349182128906 49.8195743560791 C-39.172890212280436 45.55711854764104 -39.17495626362984 41.29489195962253 -39.16621017456055 37.03241539001465 C-39.16544298255428 35.47403726005382 -39.16974029342492 33.91564649804468 -39.17966842651367 32.3572998046875 C-39.24730529987954 21.07271339152595 -39.035848144951046 10.719145516400431 -30.8125 2.23828125 C-21.829285291958854 -5.361553415282344 -10.085454954460033 -5.779305648061381 0 0 Z " fill="#000000" transform="translate(441.80859375,433.45703125)"/>
<path d="M0 0 C6.297586173635409 5.4646389041765815 9.427244199558459 11.589242531830621 10.17479133605957 19.956409454345703 C10.463938465716808 25.633944733875182 10.42049632949545 31.316859489939702 10.3984375 37 C10.400462250498435 38.84505325012162 10.403377017838864 40.69010571603201 10.407135009765625 42.53515625 C10.411539482523153 46.38809890914956 10.405188099093778 50.240831863020276 10.39111328125 54.09375 C10.3740225640081 59.00936581623728 10.383873856715923 63.924490065464965 10.401830673217773 68.840087890625 C10.412719433113807 72.64587037349088 10.409198906860524 76.45153810400996 10.401447296142578 80.25732421875 C10.399459340396561 82.06884826242924 10.401854663343329 83.88038304254167 10.408885955810547 85.69189453125 C10.481224562286343 109.5618999295001 10.481224562286343 109.5618999295001 2.00390625 118.3046875 C-3.9947199699956286 123.3795486685733 -10.231921025686518 124.74233104360428 -18.00390625 124.4453125 C-25.18481838547592 123.3780061330583 -31.362520905550127 119.8827175820644 -35.715871810913086 114.03189086914063 C-39.5731337846683 107.9285006850738 -40.44488834573946 101.3013971785648 -40.38818359375 94.2265625 C-40.393440551757806 93.40089782714847 -40.39869750976561 92.57523315429694 -40.40411376953125 91.72454833984375 C-40.41720129775484 89.02450025093549 -40.40861598792628 86.32505295492149 -40.3984375 83.625 C-40.40046147099525 81.73128141444624 -40.40337559574073 79.83756359179483 -40.407135009765625 77.94384765625 C-40.41154313706278 73.98657771042258 -40.405176154995615 70.02951174612633 -40.39111328125 66.072265625 C-40.374022362748974 61.018643794903824 -40.38387166905784 55.965500074702504 -40.40183067321777 50.911895751953125 C-40.412709447105385 47.00492803900818 -40.409203434287576 43.09807229530486 -40.40144729614258 39.19110107421875 C-40.39945659468509 37.328510969362355 -40.401864527960015 35.46591045378051 -40.40888595581055 33.60333251953125 C-40.416568192355044 30.993096452536122 -40.40480245608478 28.383617667391945 -40.38818359375 25.7734375 C-40.3942562866211 25.015770874023417 -40.4003289794922 24.25810424804689 -40.406585693359375 23.47747802734375 C-40.3064946373309 14.92326741748252 -37.842451939868 7.964531445695002 -31.96484375 1.7265625 C-22.72580419299328 -6.392036872160986 -10.076541711002676 -7.080258432374592 0 0 Z " fill="#000000" transform="translate(324,474)"/>
<path d="M0 0 C5.479960287738436 4.952829839218452 9.274167023875975 10.630329736835108 10.28211784362793 18.08709144592285 C10.393302891546455 20.30293140343406 10.417065959647516 22.50139046832942 10.404052734375 24.719970703125 C10.410915985107408 25.552030334472647 10.417779235839816 26.384089965820294 10.424850463867188 27.241363525390625 C10.443028864707458 29.969680452193984 10.439292986013584 32.69741722675866 10.43359375 35.42578125 C10.438160663557028 37.33855880183938 10.443467749383444 39.251334715641406 10.449478149414063 41.16410827636719 C10.4583923173102 45.16603271053191 10.45600640141447 49.16775742041659 10.446044921875 53.169677734375 C10.43457230433853 58.27367267943339 10.454749306807798 63.37697399370131 10.483962059020996 68.48087787628174 C10.50239730136991 72.42997041551178 10.502016803769493 76.37889909329692 10.49632453918457 80.32802391052246 C10.496172140187696 82.20850787946131 10.502148500086037 84.08900353707566 10.514616012573242 85.96944618225098 C10.644091312363116 108.70228237801098 10.644091312363116 108.70228237801098 4.0888519287109375 116.18013000488281 C-1.4701946136131028 121.50094507918334 -7.1019302000116795 124.11594863065193 -14.8125 124.5 C-22.667511176185485 124.27388578591706 -28.968021866755066 121.48355595142345 -34.4375 115.8125 C-41.47595929832005 106.14404849818516 -40.44261642287552 94.3820647798533 -40.3984375 83 C-40.400462250498435 81.15494674987838 -40.40337701783881 79.30989428396799 -40.407135009765625 77.46484375 C-40.41153948252315 73.61190109085044 -40.405188099093834 69.75916813697972 -40.39111328125 65.90625 C-40.3740225640081 60.99063418376272 -40.38387385671592 56.075509934535035 -40.40183067321777 51.159912109375 C-40.41271943311381 47.35412962650912 -40.409198906860524 43.548461895990044 -40.40144729614258 39.74267578125 C-40.39945934039656 37.93115173757076 -40.40185466334333 36.119616957458334 -40.40888595581055 34.30810546875 C-40.48072369690169 10.603373636292417 -40.48072369690169 10.603373636292417 -31.96484375 1.69140625 C-22.66350967123242 -6.315507579237362 -10.092573256824153 -7.132633238529479 0 0 Z " fill="#000000" transform="translate(562,474)"/>
</svg>
